# xmcd
# 
# Track frame offsets:
#     150
#     24730
#     44360
#     70690
#     84540
#     109600
#     136135
#     155507
#     195532
# 
# Disc length: 2719
# 
# Revision: 3
# Processed by: cddbd v1.5.2PL0 Copyright (c) Steve Scherf et al.
# Submitted via: fre:ac v1.0.31
# 
DISCID=6f0a9d09
DTITLE=Rod Stewart/Faces - Long Player
DYEAR=1971
DGENRE=Rock/Pop
TTITLE0=Bad 'N' Ruin
TTITLE1=Tell Everyone
TTITLE2=Sweet Lady Mary
TTITLE3=Richmond
TTITLE4=Maybe I'm Amazed [Live]
TTITLE5=Had Me a Real Good Time
TTITLE6=On the Beach
TTITLE7=I Feel So Good [Live]
TTITLE8=Jerusalem
EXTD=
EXTT0=
EXTT1=
EXTT2=
EXTT3=
EXTT4=
EXTT5=
EXTT6=
EXTT7=\n
EXTT8=
PLAYORDER=
